<?xml version="1.0" standalone="no"?>
<!DOCTYPE svg PUBLIC "-//W3C//DTD SVG 20010904//EN"
 "http://www.w3.org/TR/2001/REC-SVG-20010904/DTD/svg10.dtd">
<svg version="1.0" xmlns="http://www.w3.org/2000/svg"
 width="685.000000pt" height="887.000000pt" viewBox="0 0 685.000000 887.000000"
 preserveAspectRatio="xMidYMid meet">

<g transform="translate(0.000000,887.000000) scale(0.100000,-0.100000)"
fill="#000000" stroke="none">
<path d="M0 4435 l0 -4435 3425 0 3425 0 0 4435 0 4435 -3425 0 -3425 0 0
-4435z m4538 2747 c7 -10 12 -47 12 -96 0 -45 3 -105 6 -133 l7 -53 371 -2
371 -3 3 -187 2 -188 95 0 c51 0 106 -5 120 -10 l27 -10 -4 -255 c-2 -217 -5
-257 -19 -270 -13 -14 -55 -18 -247 -23 -127 -4 -341 -4 -474 0 -156 4 -245 3
-249 -4 -3 -5 -9 -61 -13 -125 -6 -120 -14 -148 -43 -157 -10 -3 -130 -8 -268
-10 -137 -3 -302 -9 -366 -12 l-117 -7 -6 -38 c-12 -75 15 -144 99 -255 34
-45 45 -93 27 -121 -12 -18 -803 -47 -814 -30 -4 6 -8 31 -8 53 0 36 7 49 55
103 76 85 88 112 89 201 l1 75 -411 5 c-458 6 -445 4 -458 73 -3 18 -6 345 -7
727 l-3 695 40 13 c43 15 280 25 969 42 773 19 1149 26 1175 22 14 -2 31 -11
38 -20z m-2804 -693 c3 -34 6 -99 6 -145 l0 -83 28 -3 c24 -3 27 -7 24 -33 -2
-16 -4 -30 -5 -31 -1 -1 -41 -4 -89 -8 l-88 -7 0 35 c0 30 4 35 31 41 l30 7
-2 84 c-2 46 -5 84 -8 84 -2 0 -12 -7 -22 -16 -16 -15 -19 -13 -34 16 l-17 32
43 44 c30 30 52 44 70 44 25 0 26 -3 33 -61z m2644 -1126 c-3 -60 -5 -68 -23
-68 -17 0 -20 7 -20 50 1 61 9 85 30 85 13 0 15 -11 13 -67z m-43 -243 c4 -6
1 -26 -5 -45 -8 -25 -18 -35 -32 -35 -18 0 -19 4 -13 37 4 21 9 41 11 45 7 11
32 10 39 -2z m-1900 -104 c39 -14 46 -41 52 -219 5 -154 -8 -516 -24 -671 -10
-97 -17 -100 -193 -93 l-147 5 -7 -111 c-8 -139 -25 -212 -75 -324 -22 -48
-41 -101 -43 -118 -3 -27 0 -30 30 -33 55 -5 66 -35 58 -153 -4 -55 -10 -107
-13 -116 -5 -14 -31 -15 -227 -9 -281 9 -273 7 -287 59 -14 52 -7 200 10 221
7 8 22 16 34 18 20 3 22 8 19 52 -2 56 -17 103 -61 198 -64 137 -74 239 -32
320 l17 35 -35 9 c-65 16 -65 13 -51 493 11 375 14 428 28 439 14 11 105 13
472 9 250 -2 464 -7 475 -11z m1825 -139 c0 -31 -27 -67 -51 -67 -25 0 -24 3
7 50 30 45 44 51 44 17z m-124 -209 c-8 -39 -23 -58 -48 -58 -32 0 -33 29 -2
61 38 40 58 39 50 -3z m-147 -166 c20 -38 -55 -110 -106 -100 -11 2 -19 13
-21 29 -2 21 5 33 39 58 49 35 74 39 88 13z m-244 -138 c26 -27 15 -66 -26
-88 -55 -30 -110 -6 -93 39 6 14 80 65 96 65 4 0 14 -7 23 -16z m-781 -43 c36
-40 2 -72 -59 -57 -28 7 -42 41 -25 61 17 21 64 18 84 -4z m268 -23 c30 -25
29 -48 -1 -79 -47 -46 -119 -37 -135 17 -8 26 14 52 52 60 15 3 32 7 37 9 20
7 31 5 47 -7z m241 3 c39 -15 45 -50 13 -78 -31 -27 -72 -30 -104 -7 -29 20
-28 48 4 73 29 23 50 26 87 12z m-649 -596 c48 -45 29 -136 -51 -241 l-26 -34
57 6 57 7 -3 -49 -3 -49 -110 -6 c-66 -4 -115 -2 -122 4 -28 21 -14 65 40 129
62 74 97 129 97 152 0 29 -42 15 -65 -21 -23 -38 -43 -41 -73 -13 -26 25 -26
23 -7 60 39 75 154 106 209 55z m1341 -153 c23 -19 39 -52 26 -52 -5 0 -16 11
-25 25 -24 36 -82 36 -96 0 -9 -23 -13 -25 -51 -19 -50 8 -69 -10 -69 -63 0
-18 -4 -33 -10 -33 -14 0 -12 60 3 90 10 20 21 25 53 26 28 0 48 8 62 22 27
27 78 29 107 4z m-3001 -361 c17 -26 -44 -131 -76 -131 -18 0 -20 4 -15 35 10
60 73 126 91 96z m2249 -190 c-15 -26 -22 -31 -43 -26 -80 19 -103 -18 -55
-89 21 -31 22 -37 9 -34 -10 2 -26 20 -36 40 -38 72 4 133 74 109 22 -8 28 -7
28 4 0 13 31 38 38 31 1 -2 -5 -18 -15 -35z m472 -76 c92 -19 217 -82 283
-142 l53 -48 -20 -45 c-50 -112 -49 -241 3 -355 26 -58 78 -121 106 -130 49
-16 83 53 43 86 -9 8 -29 34 -45 58 -31 49 -38 127 -17 174 9 21 8 28 -10 46
-27 27 -29 66 -3 52 16 -8 55 -15 75 -12 5 1 -1 13 -12 27 -12 15 -21 40 -21
56 l0 30 25 -31 c30 -35 68 -49 149 -53 57 -3 60 -2 66 22 l6 25 22 -35 c12
-19 30 -55 39 -80 9 -25 28 -57 42 -73 l25 -27 -22 -22 c-18 -18 -22 -19 -22
-6 0 8 -8 18 -17 21 -10 2 -26 8 -35 12 -15 6 -16 3 -5 -24 6 -17 15 -31 19
-31 4 0 8 -4 8 -10 0 -19 -48 -10 -63 13 -31 46 -77 87 -96 87 -11 0 -28 -11
-36 -24 -23 -35 -8 -58 76 -112 39 -24 90 -63 115 -86 43 -39 45 -40 60 -22
85 109 106 290 48 415 l-26 54 49 43 c61 55 156 109 236 133 63 20 227 38 227
25 0 -4 -16 -23 -36 -43 -106 -105 -114 -290 -18 -402 32 -37 34 -42 17 -47
-131 -45 -213 -150 -213 -274 l0 -37 -57 -6 c-146 -16 -259 -86 -303 -189 -20
-46 -22 -64 -17 -138 4 -51 16 -117 32 -165 50 -152 21 -255 -88 -310 -62 -31
-93 -31 -158 -4 -58 26 -95 79 -105 152 -6 41 -10 47 -30 47 -12 0 -26 -4 -29
-10 -3 -5 -10 -10 -16 -10 -5 0 10 38 33 85 23 47 45 85 48 85 3 0 25 -38 48
-85 34 -69 38 -84 23 -75 -11 5 -29 10 -40 10 -21 0 -21 -1 -6 -37 19 -46 77
-103 105 -103 37 0 77 28 89 62 13 38 3 77 -41 152 -41 68 -73 154 -103 270
-31 118 -33 123 -86 170 -56 51 -114 75 -215 89 l-84 11 0 42 c0 91 -61 194
-141 238 -26 15 -54 26 -63 26 -22 0 -20 23 5 46 31 28 58 87 70 150 17 93
-31 227 -96 270 -14 9 -25 20 -25 25 0 14 97 10 175 -6z m-2803 -12 c2 -10 2
-33 0 -50 -3 -24 -9 -33 -23 -33 -16 0 -19 8 -19 50 0 43 3 50 19 50 11 0 21
-8 23 -17z m82 -287 c32 -54 32 -58 4 -54 -27 4 -65 67 -55 92 9 23 20 15 51
-38z m4511 -16 c30 -28 38 -73 21 -114 -12 -29 -11 -35 5 -55 27 -33 25 -101
-3 -136 -24 -31 -74 -55 -115 -55 -39 0 -108 36 -124 66 -13 24 -12 28 14 50
34 29 63 31 70 4 6 -25 29 -34 62 -26 16 4 25 13 25 26 0 25 -15 33 -70 40
-45 5 -45 5 -45 45 0 38 2 40 35 45 44 8 60 17 60 36 0 21 -43 17 -73 -6 -33
-26 -49 -25 -78 6 l-24 26 35 29 c19 16 49 34 65 39 47 14 113 5 140 -20z
m-4367 -190 c27 -36 28 -60 3 -60 -23 0 -61 45 -61 71 0 29 33 23 58 -11z
m195 -197 c44 -30 60 -55 51 -77 -10 -26 -56 -19 -97 15 -49 40 -50 84 -3 88
6 1 27 -11 49 -26z m257 -148 c38 -19 50 -31 50 -48 0 -50 -46 -61 -101 -24
-39 26 -48 57 -24 81 21 20 17 21 75 -9z m848 3 c24 -24 14 -55 -23 -72 -44
-21 -73 -13 -81 21 -5 20 -2 31 16 45 25 21 70 24 88 6z m-287 -48 c30 0 61
-37 54 -63 -10 -32 -34 -47 -77 -47 -44 0 -78 30 -78 70 0 36 19 52 54 46 16
-3 37 -6 47 -6z m-253 -16 c26 -18 29 -56 5 -79 -19 -19 -83 -16 -108 5 -37
31 -1 90 55 90 14 0 36 -7 48 -16z m1752 -86 c0 -21 43 -84 47 -70 8 22 30 13
57 -23 24 -31 25 -36 11 -42 -11 -4 -25 4 -41 23 -13 16 -23 23 -24 16 0 -8
-9 -12 -22 -10 -24 3 -75 89 -63 107 9 15 35 14 35 -1z m1370 -23 c30 -48 48
-56 90 -39 63 27 86 -10 25 -39 -45 -21 -51 -37 -30 -77 9 -17 14 -38 11 -46
-8 -20 -34 -17 -46 5 -20 39 -41 51 -86 51 -52 0 -55 11 -14 42 34 24 37 45
15 89 -15 29 -13 49 5 49 5 0 18 -16 30 -35z m-1516 -77 c3 -13 7 -45 10 -72
4 -27 7 -50 9 -51 1 0 43 -20 92 -42 127 -58 121 -86 -27 -116 l-63 -13 -10
-66 c-15 -100 -31 -107 -75 -33 -13 22 -24 41 -25 43 -2 1 -30 -16 -64 -40
-76 -52 -91 -45 -73 33 14 59 16 109 3 109 -4 0 -29 16 -55 35 -47 37 -59 68
-34 93 7 7 41 12 81 12 l69 0 63 65 c66 69 92 80 99 43z m1820 -76 c4 -11 17
-29 31 -42 23 -22 27 -22 64 -10 22 7 47 10 55 7 24 -10 8 -35 -31 -48 -43
-14 -48 -26 -28 -72 8 -20 15 -41 15 -47 0 -21 -33 -9 -64 25 -29 30 -37 34
-69 28 -30 -4 -37 -2 -37 10 0 9 12 24 26 34 27 17 28 29 9 106 -6 21 -4 27 8
27 9 0 18 -8 21 -18z m-557 -156 c10 -13 25 -38 35 -54 9 -17 27 -38 41 -47
24 -15 29 -15 92 10 45 19 70 24 77 17 15 -15 4 -27 -57 -62 -76 -43 -82 -57
-50 -123 30 -65 31 -77 6 -77 -12 0 -29 16 -45 44 -30 52 -71 70 -126 57 -72
-16 -82 15 -17 51 51 28 58 61 27 132 -31 74 -22 103 17 52z"/>
<path d="M3655 7149 c-664 -16 -1291 -40 -1299 -51 -2 -1 0 -317 4 -701 5
-519 10 -701 19 -710 25 -25 814 -21 1884 10 l229 6 9 25 c13 33 24 1027 14
1255 l-7 177 -272 -2 c-149 0 -410 -5 -581 -9z m636 -95 c113 -11 104 32 107
-477 3 -477 -7 -741 -30 -762 -22 -21 -1781 -52 -1850 -32 -15 4 -33 17 -39
29 -9 16 -13 184 -17 604 l-5 581 33 11 c29 10 444 37 705 45 190 6 1033 7
1096 1z"/>
<path d="M3280 7019 c-354 -9 -769 -33 -779 -46 -3 -4 -4 -261 -1 -571 5 -543
6 -564 24 -578 24 -17 283 -18 791 -4 182 5 481 10 667 10 252 1 340 5 353 14
15 11 19 47 27 302 9 304 1 842 -13 865 -10 17 -555 21 -1069 8z m200 -131
c36 -18 71 -32 78 -32 6 1 12 -3 12 -8 0 -13 52 0 62 15 4 6 17 -2 34 -22 18
-22 33 -31 46 -28 10 3 18 1 18 -4 0 -5 0 -12 0 -16 1 -5 -16 -11 -37 -14 -38
-6 -38 -6 -5 -8 34 -1 35 -3 26 -38 -6 -23 -30 -21 -49 5 -7 9 -20 11 -38 7
-22 -6 -27 -13 -27 -39 0 -41 33 -73 80 -78 27 -2 36 -8 38 -25 2 -13 -1 -23
-6 -23 -5 0 -9 8 -8 18 1 14 -7 17 -44 17 -25 0 -51 4 -57 8 -18 11 -16 -8 1
-22 9 -8 28 -10 50 -5 31 5 36 4 35 -12 0 -11 -3 -14 -6 -6 -10 26 -18 10 -15
-35 5 -79 -42 -145 -113 -158 l-30 -5 30 11 c64 24 105 82 105 149 0 37 -2 40
-28 40 -15 0 -34 6 -41 13 -12 10 -13 8 -7 -8 21 -58 19 -74 -13 -104 -17 -16
-31 -35 -31 -41 0 -9 -12 -11 -42 -6 -24 4 -63 9 -88 12 l-45 6 52 -31 c29
-17 64 -32 78 -33 14 -1 21 -6 16 -11 -6 -6 -38 4 -80 23 l-70 33 -27 -32
c-24 -29 -32 -32 -72 -29 -56 4 -87 38 -87 99 0 33 6 46 30 66 25 22 35 25 77
20 l48 -6 0 34 c0 23 -5 35 -14 35 -21 0 -74 52 -86 83 -24 66 -8 138 42 184
55 52 106 52 208 1z m-332 -637 c-2 -9 -13 -17 -26 -19 -26 -4 -27 -14 -8 -45
9 -15 11 -29 5 -44 -14 -37 -90 -45 -97 -10 -3 13 3 17 27 17 34 0 39 11 16
30 -16 13 -20 47 -7 67 20 32 96 35 90 4z m62 -1 c-13 -24 -13 -40 0 -40 5 0
12 11 16 25 7 26 31 52 41 42 9 -9 -30 -148 -46 -164 -20 -21 -34 -2 -22 30 8
20 7 27 -2 27 -7 0 -18 -13 -24 -30 -11 -30 -43 -42 -43 -17 0 28 41 133 57
144 22 17 35 6 23 -17z m231 9 c19 -19 20 -22 4 -46 -9 -13 -14 -27 -12 -30 3
-2 11 6 17 19 33 62 91 88 120 53 19 -22 4 -48 -23 -41 -26 6 -40 -1 -55 -30
-13 -24 -7 -34 21 -34 17 0 18 2 6 16 -10 13 -10 17 2 25 19 12 25 11 42 -6
13 -12 15 -11 20 13 9 43 44 74 80 70 29 -3 32 -7 35 -40 4 -46 -21 -102 -51
-115 -28 -13 -63 0 -72 25 -6 20 -7 19 -30 -4 -29 -29 -80 -32 -96 -5 -12 18
-12 18 -30 0 -11 -11 -33 -19 -54 -19 -31 0 -35 3 -35 26 0 46 23 105 48 125
31 24 37 24 63 -2z m-107 -11 c-28 -89 -43 -123 -57 -132 -26 -17 -30 0 -12
56 22 67 41 98 61 98 11 0 14 -6 8 -22z m506 7 c0 -24 -40 -122 -55 -135 -12
-10 -17 -7 -26 14 -12 26 -12 26 -23 4 -17 -33 -36 -34 -35 -1 0 38 31 115 47
121 7 2 16 -5 19 -17 7 -28 17 -27 31 4 12 27 42 34 42 10z"/>
<path d="M3313 6905 c-18 -8 -44 -32 -58 -52 -49 -73 -25 -170 53 -216 l32
-19 0 31 c0 23 -5 31 -17 31 -10 0 -25 5 -33 10 -11 7 -7 8 15 4 17 -3 48 1
71 9 24 9 47 12 55 7 14 -9 29 -4 29 10 0 16 -39 21 -79 10 -27 -7 -47 -7 -66
0 -25 10 -27 14 -22 48 8 45 38 72 83 72 39 0 86 -19 78 -32 -3 -4 3 -16 12
-25 13 -13 18 -15 22 -5 3 10 7 10 18 1 11 -9 14 -6 14 19 0 25 3 30 17 25 41
-16 -2 17 -62 46 -78 39 -119 45 -162 26z"/>
<path d="M3630 6840 c0 -5 5 -10 10 -10 6 0 10 5 10 10 0 6 -4 10 -10 10 -5 0
-10 -4 -10 -10z"/>
<path d="M3320 6813 c-11 -15 -20 -36 -18 -47 4 -27 47 -35 61 -11 8 15 20 17
76 13 36 -3 56 -3 44 -1 -13 2 -23 9 -23 14 0 5 -7 9 -16 9 -11 0 -14 5 -10
17 9 22 -10 33 -56 33 -28 0 -42 -6 -58 -27z"/>
<path d="M3605 6830 c-3 -6 -10 -8 -15 -5 -5 3 -21 3 -35 -1 -21 -5 -26 -11
-22 -30 2 -13 -1 -25 -7 -27 -6 -2 -2 -8 9 -14 27 -15 105 0 117 21 5 9 18 16
30 16 21 0 21 0 3 20 -10 12 -25 18 -33 15 -8 -3 -20 -1 -27 5 -9 8 -15 8 -20
0z"/>
<path d="M3370 6750 c0 -8 8 -10 25 -6 56 14 110 -23 77 -54 -14 -13 -15 -12
-9 5 6 18 6 18 -6 4 -9 -12 -16 -14 -29 -5 -19 11 -73 -2 -74 -19 -1 -25 -16
-122 -21 -140 -5 -19 -5 -19 14 -2 25 21 93 35 93 18 0 -6 -6 -11 -12 -11 -31
-1 24 -20 74 -26 l55 -6 17 107 c10 58 16 108 14 109 -11 7 -110 28 -159 33
-44 4 -59 3 -59 -7z"/>
<path d="M3673 6749 c14 -8 22 -8 30 0 8 8 3 11 -18 11 -26 -1 -28 -2 -12 -11z"/>
<path d="M3590 6652 c0 -10 22 -32 32 -32 12 0 -2 28 -18 34 -8 3 -14 2 -14
-2z"/>
<path d="M3570 6538 c0 -15 -8 -34 -17 -44 -13 -13 -14 -16 -3 -12 8 2 22 16
30 31 12 21 12 29 2 39 -9 9 -12 7 -12 -14z"/>
<path d="M3219 6540 c-29 -17 -42 -64 -29 -104 13 -39 35 -56 74 -56 43 0 56
11 88 74 16 33 37 69 46 79 8 9 11 17 6 17 -19 0 -54 -32 -84 -75 -34 -50 -63
-58 -80 -22 -10 20 -10 20 3 5 18 -23 30 -23 51 1 17 18 17 20 -1 29 -12 7
-24 7 -38 0 -19 -10 -19 -10 -2 8 14 16 21 17 37 6 27 -17 30 -15 30 12 0 13
-7 27 -16 30 -23 9 -67 7 -85 -4z"/>
<path d="M3386 6498 c-8 -12 -13 -24 -11 -28 3 -4 28 -10 57 -14 29 -4 63 -10
76 -13 19 -4 22 -1 22 25 0 28 -3 30 -57 41 -73 14 -69 15 -87 -11z"/>
<path d="M3390 6220 c0 -5 4 -10 9 -10 6 0 13 5 16 10 3 6 -1 10 -9 10 -9 0
-16 -4 -16 -10z"/>
<path d="M3637 6198 c-20 -30 -24 -52 -12 -58 10 -5 39 69 31 77 -2 3 -11 -6
-19 -19z"/>
<path d="M3375 6149 c-4 -6 -5 -13 -2 -16 7 -7 27 6 27 18 0 12 -17 12 -25 -2z"/>
<path d="M4560 6790 l0 -70 355 0 355 0 0 70 0 70 -355 0 -355 0 0 -70z"/>
<path d="M4628 6573 l-68 -4 0 -135 0 -135 343 7 c188 3 348 7 355 10 9 2 12
37 12 127 l0 124 -107 6 c-105 7 -404 6 -535 0z m536 -49 c12 -5 16 -21 16
-69 l0 -64 -42 -6 c-24 -3 -72 -5 -108 -3 l-65 3 0 63 c0 45 5 66 15 72 17 11
159 14 184 4z"/>
<path d="M5000 6455 l0 -35 70 0 70 0 0 35 0 35 -70 0 -70 0 0 -35z"/>
<path d="M5310 6450 c0 -28 2 -30 38 -30 29 0 39 -5 47 -22 6 -13 25 -30 42
-38 l33 -15 0 -86 c0 -119 -7 -149 -34 -149 -12 0 -35 -14 -52 -31 l-29 -31
-320 6 c-176 4 -355 9 -397 12 l-78 6 0 -35 0 -35 133 -7 c170 -9 793 -3 804
8 4 5 10 110 12 234 3 182 1 227 -10 234 -8 5 -53 9 -101 9 l-88 0 0 -30z"/>
<path d="M4893 6263 c-84 -4 -92 -16 -41 -58 29 -25 38 -27 104 -23 60 3 77 8
98 27 14 14 26 33 26 43 0 19 -2 19 -187 11z"/>
<path d="M3384 5633 l-141 -4 -5 -77 c-7 -94 -27 -144 -77 -197 -41 -43 -71
-93 -71 -121 0 -15 9 -16 83 -10 45 3 214 9 375 13 161 3 295 10 298 14 3 5
-20 42 -49 82 -84 114 -91 130 -92 225 l0 82 -90 -2 c-49 -1 -153 -4 -231 -5z"/>
<path d="M1530 4992 l-25 -8 -8 -408 c-5 -224 -6 -418 -3 -432 5 -20 12 -24
45 -24 24 0 54 9 75 23 32 20 35 26 36 70 0 35 -4 47 -15 47 -27 0 -30 1 -47
17 -18 16 -23 57 -12 87 4 11 19 16 44 16 41 0 62 16 39 31 -8 5 -28 9 -45 9
-34 0 -44 13 -44 59 0 38 17 51 67 51 36 0 45 5 60 28 10 15 23 31 30 35 7 4
13 27 13 50 0 24 5 48 12 55 7 7 39 12 74 12 66 0 74 -6 74 -56 0 -46 -17 -64
-60 -64 -22 0 -40 -3 -40 -6 0 -20 24 -44 45 -44 19 0 25 -6 30 -34 9 -48 3
-69 -23 -81 -29 -13 -28 -23 3 -35 21 -8 25 -16 25 -50 0 -28 -6 -45 -20 -57
-24 -21 -26 -33 -5 -33 9 0 31 -16 51 -35 19 -19 38 -35 43 -35 12 0 51 -36
51 -48 0 -12 24 -22 51 -22 10 0 28 -9 39 -20 18 -18 33 -20 175 -20 l154 0 5
33 c18 111 34 800 20 853 -4 14 -17 24 -36 28 -46 9 -850 17 -878 8z m181
-102 c25 -14 27 -91 2 -111 -20 -18 -106 -17 -127 0 -21 17 -21 85 0 105 18
18 95 22 125 6z m173 0 c22 -8 26 -16 26 -53 0 -24 -5 -48 -12 -55 -19 -19
-134 -16 -142 4 -8 22 -7 77 2 90 14 22 85 30 126 14z m180 0 c21 -8 26 -16
26 -45 0 -63 -13 -75 -78 -75 -32 0 -63 5 -70 12 -13 13 -16 76 -4 94 16 24
82 31 126 14z m280 -9 c12 -13 16 -32 14 -58 l-3 -38 -65 -3 c-52 -2 -67 0
-77 14 -17 23 -17 69 0 82 32 26 109 28 131 3z m-639 -231 l0 -55 -48 -3 c-81
-5 -119 38 -86 99 9 17 19 20 72 17 l62 -3 0 -55z m374 41 c13 -23 14 -71 2
-89 -5 -9 -28 -12 -77 -10 l-69 3 -3 45 c-4 55 9 66 82 69 46 2 57 -1 65 -18z
m265 3 c19 -19 21 -64 3 -88 -12 -16 -21 -17 -78 -10 l-64 9 -3 53 -3 52 65 0
c45 0 69 -5 80 -16z m-290 -154 c22 -8 26 -15 26 -52 0 -24 -4 -48 -8 -54 -12
-18 -51 -26 -97 -20 -32 5 -45 13 -54 33 -15 32 2 90 27 96 31 8 80 7 106 -3z
m260 -20 c22 -8 26 -16 26 -48 0 -51 -14 -62 -80 -62 -31 0 -61 5 -68 12 -19
19 -15 85 6 97 22 13 83 14 116 1z m-245 -152 c4 -12 5 -35 1 -52 -6 -31 -7
-31 -73 -34 -64 -3 -68 -2 -77 23 -5 14 -7 38 -4 55 6 30 7 30 76 30 61 0 69
-2 77 -22z m279 -27 c8 -55 -4 -68 -65 -73 -78 -7 -93 2 -93 57 0 24 4 45 10
47 5 2 40 1 77 -2 62 -5 68 -7 71 -29z"/>
<path d="M1594 4843 c-9 -34 16 -53 68 -53 38 0 38 0 38 40 l0 40 -50 0 c-45
0 -50 -2 -56 -27z"/>
<path d="M1793 4863 c-7 -2 -13 -17 -13 -33 0 -22 5 -29 25 -32 14 -3 36 -3
50 0 21 4 25 10 25 38 0 33 -1 34 -37 33 -21 0 -44 -3 -50 -6z"/>
<path d="M1960 4835 l0 -35 50 0 50 0 0 35 0 35 -50 0 -50 0 0 -35z"/>
<path d="M2242 4861 c-8 -4 -12 -19 -10 -32 3 -22 7 -24 48 -21 54 4 65 13 51
41 -12 22 -63 29 -89 12z"/>
<path d="M1590 4650 c0 -29 2 -30 45 -30 43 0 45 1 45 30 0 29 -2 30 -45 30
-43 0 -45 -1 -45 -30z"/>
<path d="M1960 4651 c0 -30 1 -31 51 -31 49 0 50 1 47 28 -3 25 -7 27 -50 30
-47 3 -48 3 -48 -27z"/>
<path d="M2237 4684 c-4 -4 -7 -18 -7 -30 0 -18 7 -24 35 -30 19 -3 42 -4 50
0 19 7 20 56 1 56 -7 0 -26 3 -42 6 -16 3 -32 2 -37 -2z"/>
<path d="M1945 4501 c-3 -12 -3 -30 0 -41 5 -16 15 -20 56 -20 l50 0 -3 38
c-3 37 -4 37 -50 40 -39 3 -47 0 -53 -17z"/>
<path d="M2210 4469 l0 -30 52 3 c42 2 54 7 56 22 5 25 -14 36 -65 36 -41 0
-43 -1 -43 -31z"/>
<path d="M1940 4335 c0 -23 3 -25 50 -25 47 0 50 2 50 25 0 23 -3 25 -50 25
-47 0 -50 -2 -50 -25z"/>
<path d="M2219 4346 c-3 -4 -4 -18 -1 -32 3 -17 9 -23 19 -20 8 3 30 6 49 6
27 0 34 4 34 20 0 13 -7 20 -19 20 -10 0 -31 3 -47 6 -16 3 -32 3 -35 0z"/>
<path d="M1777 4683 c-4 -3 -7 -19 -7 -35 0 -27 2 -28 50 -28 l50 0 0 35 c0
35 0 35 -43 35 -24 0 -47 -3 -50 -7z"/>
<path d="M1726 4521 c-8 -13 -33 -235 -41 -361 -4 -58 -9 -108 -12 -113 -10
-16 -23 6 -23 39 0 19 -4 34 -9 34 -17 0 -79 -78 -91 -115 -15 -47 -8 -121 21
-195 64 -168 89 -249 89 -291 l0 -46 98 -6 c53 -4 121 -7 150 -7 47 0 52 2 52
23 0 12 12 49 26 82 53 124 75 197 89 301 17 120 13 170 -16 177 -10 3 -19 12
-19 21 0 9 -4 16 -10 16 -5 0 -10 -9 -10 -21 0 -25 -17 -59 -30 -59 -6 0 -10
21 -10 48 0 85 -43 134 -55 63 -10 -62 -35 -55 -35 10 0 56 -13 89 -35 89 -12
0 -15 -14 -15 -60 0 -44 -4 -60 -14 -60 -19 0 -22 19 -25 160 -2 192 -10 259
-32 270 -22 12 -36 13 -43 1z"/>
<path d="M1623 4503 c-33 -6 -32 -50 2 -59 39 -10 57 2 53 33 -3 28 -15 34
-55 26z"/>
<path d="M1830 4480 c0 -16 5 -30 10 -30 6 0 10 14 10 30 0 17 -4 30 -10 30
-5 0 -10 -13 -10 -30z"/>
<path d="M1604 4346 c-11 -29 1 -51 29 -54 25 -3 27 -1 27 32 0 32 -3 36 -25
36 -14 0 -28 -6 -31 -14z"/>
<path d="M1842 4330 c0 -19 2 -27 5 -17 2 9 2 25 0 35 -3 9 -5 1 -5 -18z"/>
<path d="M1630 3355 c-16 -19 -9 -45 17 -62 19 -13 24 -12 42 6 13 13 18 27
14 38 -13 35 -51 44 -73 18z m42 -30 c0 -5 -5 -11 -11 -13 -6 -2 -11 4 -11 13
0 9 5 15 11 13 6 -2 11 -8 11 -13z"/>
<path d="M3586 1716 c-34 -42 -38 -44 -88 -44 -97 1 -97 1 -40 -37 50 -34 52
-37 52 -80 0 -48 16 -59 40 -30 20 24 48 18 65 -15 19 -37 35 -30 35 15 0 40
23 59 82 69 21 4 40 11 42 15 3 5 -22 21 -57 36 -71 32 -77 38 -77 83 0 17 -4
32 -9 32 -5 0 -25 -20 -45 -44z"/>
</g>
</svg>
